#N canvas 152 152 1920 1016 12;
#N canvas 0 50 450 250 (subpatch) 0;
#X array wave 20547 float 4;
#X coords 0 1 20546 -1 400 280 1 0 0;
#X restore 853 302 graph;
#X obj 596 315 soundfiler;
#X obj 596 260 openpanel;
#X obj 596 236 bng 15 250 50 0 empty empty empty 17 7 0 10 #fcfcfc #000000 #000000;
#X msg 596 289 read -resize \$1 wave;
#X text 857 609 Write Wavetable to Text FIle;
#X msg 859 637 \; wave write wave.txt;
#X obj 596 358 expr 44100/$f1;
#X floatatom 715 334 10 0 0 0 - - - 0;
#X obj 715 359 s sampleSize;
#X floatatom 661 385 10 0 0 0 - - - 0;
#X obj 596 409 phasor~;
#X obj 596 482 *~;
#X obj 614 443 r sampleSize;
#X obj 661 408 s waveSpeed;
#X obj 597 558 tabread4~ wave;
#X obj 597 735 dac~;
#X obj 597 711 *~ 0.7;
#X obj 597 582 lop~ 5000;
#X connect 1 0 7 0;
#X connect 1 0 8 0;
#X connect 2 0 4 0;
#X connect 3 0 2 0;
#X connect 4 0 1 0;
#X connect 7 0 10 0;
#X connect 7 0 11 0;
#X connect 8 0 9 0;
#X connect 10 0 14 0;
#X connect 11 0 12 0;
#X connect 12 0 15 0;
#X connect 13 0 12 1;
#X connect 15 0 18 0;
#X connect 17 0 16 0;
#X connect 17 0 16 1;
#X connect 18 0 17 0;
